<svg xmlns="http://www.w3.org/2000/svg" xmlns:xlink="http://www.w3.org/1999/xlink" width="11" height="16" version="1.1" viewBox="0 0 11 16"><title>hover</title><desc>Created with Sketch.</desc><g id="specification" fill="none" fill-rule="evenodd" stroke="none" stroke-width="1"><g id="spec" fill="#000" transform="translate(-1359.000000, -399.000000)"><g id="Point" transform="translate(1359.000000, 340.000000)"><g id="hover" transform="translate(0.000000, 59.000000)"><path id="Shape" d="M5.5,0 C2.43571429,0 0,2.48 0,5.6 C0,9.76 5.5,16 5.5,16 C5.5,16 11,9.76 11,5.6 C11,2.48 8.56428571,0 5.5,0 L5.5,0 Z M5.5,7.6 C4.4,7.6 3.53571429,6.72 3.53571429,5.6 C3.53571429,4.48 4.4,3.6 5.5,3.6 C6.6,3.6 7.46428571,4.48 7.46428571,5.6 C7.46428571,6.72 6.6,7.6 5.5,7.6 L5.5,7.6 Z"/></g></g></g></g></svg>